<svg width="700" height="118" viewBox="0 0 700 118" fill="none" xmlns="http://www.w3.org/2000/svg">
<mask id="mask0_107_24" style="mask-type:luminance" maskUnits="userSpaceOnUse" x="0" y="0" width="700" height="118">
<path d="M0 0.390381H699.978V117.004H0V0.390381Z" fill="white"/>
</mask>
<g mask="url(#mask0_107_24)">
<path d="M71.7676 113.774L100.518 106.628C100.518 106.628 88.1395 22.9381 88.0606 22.3639C87.9818 21.7898 87.4802 21.4713 87.064 21.4366C86.6507 21.4018 78.556 21.2789 78.556 21.2789C78.556 21.2789 73.6224 16.487 71.7676 14.6731V113.774Z" fill="black"/>
<path d="M68.6049 13.7128C68.5986 13.716 67.3337 14.1072 65.2044 14.7665C64.8478 13.6119 64.3241 12.1923 63.5766 10.7665C61.1664 6.16711 57.6367 3.73496 53.3715 3.72865C53.3653 3.72865 53.3621 3.72865 53.3559 3.72865C53.0592 3.72865 52.7661 3.75705 52.4694 3.78229C52.3432 3.63087 52.2169 3.48261 52.0847 3.33748C50.2266 1.35011 47.8447 0.381663 44.9898 0.466836C39.4822 0.624564 33.9963 4.60246 29.5484 11.6687C26.4191 16.6402 24.0374 22.8862 23.3623 27.7223C17.0374 29.6812 12.6147 31.0501 12.5169 31.0818C9.32452 32.0849 9.22356 32.1826 8.80718 35.1922C8.49485 37.4665 0.141602 102.059 0.141602 102.059L69.4442 114.043V13.5709C69.1035 13.5929 68.7973 13.656 68.6049 13.7128ZM52.6019 18.6687C48.9332 19.8043 44.9299 21.044 40.9143 22.2869C42.0435 17.9619 44.1857 13.656 46.8164 10.8327C47.7945 9.78225 49.1634 8.6119 50.7848 7.94312C52.3085 11.1229 52.6397 15.6245 52.6019 18.6687ZM45.0973 4.13243C46.3906 4.10405 47.4788 4.38794 48.4094 4.99994C46.9206 5.77281 45.482 6.88321 44.1319 8.33114C40.6335 12.0851 37.952 17.9116 36.8826 23.5329C33.5484 24.5645 30.2864 25.5771 27.2835 26.5046C29.1792 17.656 36.5957 4.37849 45.0973 4.13243ZM34.3813 54.5392C34.7535 60.435 50.2643 61.7219 51.1349 75.5325C51.8195 86.3968 45.3716 93.8291 36.0814 94.4157C24.9301 95.1193 18.7913 88.5389 18.7913 88.5389L21.1541 78.4854C21.1541 78.4854 27.3338 83.1478 32.2801 82.8355C35.5104 82.6303 36.665 80.0026 36.5484 78.1447C36.0625 70.4538 23.4316 70.9082 22.6336 58.2711C21.9616 47.6368 28.9459 36.8611 44.356 35.8892C50.2927 35.514 53.3338 37.0315 53.3338 37.0315L49.8099 50.2141C49.8099 50.2141 45.8796 48.4256 41.2201 48.7191C34.3842 49.1509 34.3118 53.4601 34.3813 54.5392ZM56.2642 17.5362C56.2234 14.7475 55.8921 10.8674 54.5923 7.5141C58.7721 8.3059 60.8289 13.0346 61.6995 15.8548C60.0876 16.35 58.2516 16.9179 56.2642 17.5362Z" fill="black"/>
<path d="M415.188 114.525L424.897 62.7607C426.113 56.2658 427.022 50.503 427.631 46.045H431.785L430.268 55.8701H430.468C434.826 49.2866 440.905 45.0325 447.387 45.0325C456.608 45.0325 460.049 52.9327 460.049 60.8359C460.049 77.2474 448.804 95.6724 433.305 95.6724C428.544 95.6724 425.402 94.5594 423.581 93.5467H423.377L419.539 114.508L415.188 114.525ZM424.303 89.0977C426.532 90.8189 429.775 91.8315 433.725 91.8315C446.591 91.8315 455.507 73.5985 455.507 61.1281C455.507 55.3536 453.278 48.9707 446.086 48.9707C439.195 48.9707 430.179 57.6828 427.445 72.3732L424.303 89.0977Z" fill="black"/>
<path d="M493.684 94.6715C493.581 91.734 494.189 87.1757 494.898 81.6049H494.703C489.13 92.3423 482.95 95.6842 476.567 95.6842C469.187 95.6842 464.715 89.6055 464.715 80.8934C464.715 64.3815 476.567 45.0325 495.417 45.0325C498.863 45.0325 502.712 45.6406 505.242 46.4496L500.077 72.6891C498.355 81.7052 497.747 89.5169 497.951 94.6715H493.684ZM500.18 49.6911C499.063 49.2866 497.343 48.9826 494.302 48.9826C480.323 48.9826 469.382 64.5851 469.281 79.8808C469.178 86.1632 471.003 91.8345 477.586 91.8345C485.489 91.8345 494.414 79.9841 496.735 67.4194L500.18 49.6911Z" fill="black"/>
<path d="M509.268 94.6715L515.449 61.9489C516.663 55.7698 517.375 50.2993 517.779 46.045H521.83C521.425 49.1863 521.02 52.4279 520.412 56.5816H520.616C523.653 50.0868 528.416 45.0325 534.492 45.0325C535.105 45.0383 535.716 45.1056 536.317 45.2332L535.504 49.7944C534.941 49.6634 534.362 49.5951 533.783 49.5907C527.401 49.5907 520.309 59.2151 518.281 69.9612L513.723 94.6804L509.268 94.6715Z" fill="black"/>
<path d="M554.828 35.2798L552.702 46.02H564.147L563.339 49.7693H551.89L546.52 78.7426C545.915 81.9902 545.508 84.5173 545.508 87.1508C545.508 89.9878 546.824 91.709 549.865 91.709C551.486 91.709 552.498 91.6086 553.407 91.3045L553.703 94.8473C552.159 95.3101 550.553 95.5487 548.941 95.5557C543.166 95.5557 540.937 91.7178 540.937 87.6555C540.937 85.0192 541.233 82.4862 542.053 78.7397L547.523 49.7664H540.533L541.241 46.0171H548.326L549.947 37.305L554.828 35.2798Z" fill="black"/>
<path d="M562.987 94.6715L569.483 60.3281C570.465 55.608 571.21 50.8408 571.712 46.045H575.762L574.437 55.9735H574.641C578.894 48.8881 584.973 45.0325 591.556 45.0325C596.319 45.0325 602.397 48.0703 602.397 57.2902C602.397 59.7198 601.993 62.1526 601.484 64.7859L595.913 94.6715H591.556L597.231 64.7859C597.682 62.4505 597.918 60.0788 597.94 57.7006C597.94 52.6345 595.913 48.9885 589.936 48.9885C583.441 48.9885 574.336 57.0924 572.222 68.8453L567.46 94.6775L562.987 94.6715Z" fill="black"/>
<path d="M638.027 91.9378C635.494 93.5585 630.832 95.5837 624.757 95.5837C613.408 95.5837 609.459 86.6679 609.459 77.3477C609.459 63.3689 619.183 45.0325 633.165 45.0325C641.169 45.0325 644.511 50.2993 644.511 55.6605C644.511 68.0186 630.339 71.4639 614.422 71.3636C613.917 73.5925 613.831 79.9752 614.829 83.4176C616.55 88.9915 620.299 91.6248 625.456 91.6248C630.823 91.6248 634.473 89.6999 636.702 88.3774L638.027 91.9378ZM632.354 48.9826C624.857 48.9826 618.07 57.0865 615.133 67.5226C627.795 67.6231 639.952 65.4945 639.952 55.8701C639.952 51.3119 636.911 48.9826 632.354 48.9826Z" fill="black"/>
<path d="M646.906 94.6715L653.088 61.9489C654.305 55.7698 655.012 50.2993 655.418 46.045H659.47C659.063 49.1863 658.659 52.4279 658.051 56.5816H658.255C661.292 50.0868 666.055 45.0325 672.129 45.0325C672.744 45.0383 673.355 45.1056 673.954 45.2332L673.143 49.7944C672.579 49.6634 671.999 49.5951 671.422 49.5907C665.038 49.5907 657.947 59.2151 655.923 69.9612L651.361 94.6804L646.906 94.6715Z" fill="black"/>
<path d="M672.058 88.9705C674.62 90.6506 677.608 91.564 680.669 91.6039C687.053 91.6039 691.297 87.0456 691.297 81.5662C691.297 76.7009 689.272 73.7634 684.714 70.826C679.952 67.6848 677.315 63.3302 677.315 58.8724C677.315 51.2733 683.395 44.9968 691.905 44.9968C695.247 44.9968 698.593 46.1098 700.01 47.2257L698.387 50.978C696.865 50.0658 694.232 48.9528 691.395 48.9528C685.521 48.9528 681.671 53.0062 681.671 58.0694C681.671 62.6305 684.203 65.1547 688.257 67.8118C692.915 70.9529 695.752 75.4078 695.752 80.2731C695.752 90.0982 688.561 95.5687 680.253 95.5687C675.896 95.5687 672.046 93.948 670.426 92.6313L672.058 88.9705Z" fill="black"/>
<path d="M141.595 65.1506C138.079 63.2434 136.281 61.6345 136.281 59.4232C136.281 56.6098 138.793 54.8029 142.715 54.8029C147.278 54.8029 151.356 56.7101 151.356 56.7101L154.547 46.8643C154.547 46.8643 151.594 44.5527 142.891 44.5527C130.787 44.5527 122.391 51.4846 122.391 61.233C122.391 66.7596 126.312 70.9754 131.543 73.9925C135.761 76.4046 137.271 78.1257 137.271 80.6263C137.271 83.2391 135.16 85.3499 131.242 85.3499C125.402 85.3499 119.887 82.3356 119.887 82.3356L116.463 92.1813C116.463 92.1813 121.559 95.5971 130.129 95.5971C142.59 95.5971 151.532 89.4682 151.532 78.4151C151.544 72.4869 147.021 68.2652 141.595 65.1506Z" fill="black"/>
<path d="M191.203 44.4374C185.074 44.4374 180.251 47.3513 176.534 51.7708L176.33 51.6734L181.643 23.8396H167.801L154.336 94.6936H168.212L172.831 70.4851C174.641 61.3332 179.365 55.7239 183.785 55.7239C186.899 55.7239 188.106 57.8348 188.106 60.849C188.106 62.9067 187.902 64.9597 187.501 66.9778L182.268 94.6905H196.142L201.566 66.0538C202.166 63.0738 202.503 60.0471 202.573 57.0081C202.558 49.1611 198.436 44.4374 191.203 44.4374Z" fill="black"/>
<path d="M233.864 44.4463C217.185 44.4463 206.137 59.5293 206.137 76.3099C206.137 87.062 212.768 95.7032 225.23 95.7032C241.608 95.7032 252.659 81.0336 252.659 63.8515C252.652 53.8936 246.826 44.4463 233.864 44.4463ZM227.033 85.0398C222.31 85.0398 220.299 81.0218 220.299 75.9971C220.299 68.0585 224.432 55.098 231.955 55.098C236.879 55.098 238.485 59.3168 238.485 63.4382C238.485 71.9909 234.367 85.0516 227.033 85.0516V85.0398Z" fill="black"/>
<path d="M288.123 44.4463C278.762 44.4463 273.448 52.7126 273.448 52.7126H273.247L274.05 45.276H261.798C261.208 50.2947 260.09 57.9381 258.984 63.6654L249.34 114.391H263.216L267.032 93.8936H267.328C267.328 93.8936 270.174 95.7032 275.467 95.7032C291.746 95.7032 302.395 79.0231 302.395 62.1422C302.381 52.7982 298.274 44.4463 288.123 44.4463ZM274.862 85.2523C272.775 85.283 270.745 84.5717 269.135 83.2447L271.446 70.2814C273.052 61.6402 277.575 55.9129 282.396 55.9129C286.618 55.9129 287.923 59.8306 287.923 63.5503C287.914 72.4927 282.6 85.2523 274.862 85.2523Z" fill="black"/>
<path d="M322.222 24.5501C321.172 24.5469 320.13 24.7534 319.159 25.1574C318.187 25.5616 317.307 26.1552 316.567 26.9038C315.828 27.6523 315.247 28.5407 314.853 29.5168C314.464 30.493 314.269 31.5375 314.287 32.5891C314.287 36.7223 316.899 39.521 320.818 39.521H321.018C325.34 39.521 329.058 36.6072 329.157 31.482C329.157 27.464 326.444 24.5501 322.222 24.5501Z" fill="black"/>
<path d="M302.846 94.6848H316.712L326.157 45.5476H312.189L302.846 94.6848Z" fill="black"/>
<path d="M361.439 45.4739H351.795L352.297 43.1653C353.1 38.4417 355.913 34.22 360.537 34.22C362.04 34.2224 363.536 34.4605 364.964 34.9255L367.669 24.0879C367.669 24.0879 365.257 22.8804 360.131 22.8804C355.211 22.8804 350.286 24.2886 346.57 27.5036C341.846 31.5216 339.634 37.3494 338.53 43.18L338.129 45.4887H331.699L329.689 55.9397H336.118L328.782 94.7262H342.658L349.977 55.9249H359.521L361.439 45.4739Z" fill="black"/>
<path d="M394.782 45.5476C394.782 45.5476 386.115 67.3943 382.221 79.3095H382.024C381.755 75.4716 378.605 45.5476 378.605 45.5476H364.035L372.375 90.6639C372.577 91.6675 372.476 92.2727 372.08 92.9755C370.471 96.09 367.758 99.1043 364.542 101.315C361.93 103.226 359.016 104.43 356.708 105.233L360.524 116.992C363.339 116.401 369.166 114.075 374.106 109.455C380.435 103.527 386.263 94.3807 392.291 81.9222L409.273 45.5476H394.782Z" fill="black"/>
</g>
</svg>
