<svg width="650" height="714" viewBox="0 0 650 714" fill="none" xmlns="http://www.w3.org/2000/svg">
<path d="M270.833 14.4474L54.1667 138.999C37.7142 148.454 24.0486 162.05 14.5413 178.422C5.03408 194.795 0.019486 213.368 0 232.278V481.382C0.019486 500.292 5.03408 518.865 14.5413 535.237C24.0486 551.61 37.7142 565.205 54.1667 574.661L270.833 699.212C287.302 708.677 305.984 713.66 325 713.66C344.016 713.66 362.698 708.677 379.167 699.212L595.833 574.661C612.286 565.205 625.951 551.61 635.458 535.237C644.966 518.865 649.981 500.292 650 481.382V232.278C649.981 213.368 644.966 194.795 635.458 178.422C625.951 162.05 612.286 148.454 595.833 138.999L379.167 14.4474C362.698 4.98274 344.016 0 325 0C305.984 0 287.302 4.98274 270.833 14.4474Z" fill="url(#paint0_linear_5_247)"/>
<defs>
<linearGradient id="paint0_linear_5_247" x1="642.83" y1="178.36" x2="22.9669" y2="537.765" gradientUnits="userSpaceOnUse">
<stop stop-color="#02EEB6"/>
<stop offset="0.4" stop-color="#02DBE7"/>
<stop offset="1" stop-color="#0AC4FF"/>
</linearGradient>
</defs>
</svg>
