<svg width="132" height="132" viewBox="0 0 132 132" fill="none" xmlns="http://www.w3.org/2000/svg">
<path d="M56.3349 128.368L16.867 105.68C13.87 103.958 11.3807 101.481 9.64885 98.4987C7.91701 95.5163 7.00355 92.133 7 88.6883V43.3117C7.00355 39.8669 7.91701 36.4837 9.64885 33.5013C11.3807 30.519 13.87 28.0424 16.867 26.32L56.3349 3.63173C59.3349 1.90765 62.7379 0.999995 66.2019 0.999995C69.6659 0.999995 73.0689 1.90765 76.0689 3.63173L115.537 26.32C118.534 28.0424 121.023 30.519 122.755 33.5013C124.487 36.4837 125.4 39.8669 125.404 43.3117V88.6883C125.4 92.133 124.487 95.5163 122.755 98.4987C121.023 101.481 118.534 103.958 115.537 105.68L76.0689 128.368C73.0689 130.092 69.6659 131 66.2019 131C62.7379 131 59.3349 130.092 56.3349 128.368Z" fill="url(#paint0_linear_450_1214)"/>
<defs>
<linearGradient id="paint0_linear_450_1214" x1="124.098" y1="98.5101" x2="11.1837" y2="33.0409" gradientUnits="userSpaceOnUse">
<stop stop-color="#02EEB6"/>
<stop offset="0.4" stop-color="#02DBE7"/>
<stop offset="1" stop-color="#0AC4FF"/>
</linearGradient>
</defs>
</svg>
