<svg width="120" height="120" viewBox="0 0 120 120" fill="none" xmlns="http://www.w3.org/2000/svg">
<path d="M51.2136 116.698L15.3336 96.0727C12.6091 94.5069 10.3461 92.2555 8.77168 89.5443C7.19728 86.833 6.36687 83.7573 6.36364 80.6258V39.3743C6.36687 36.2427 7.19728 33.167 8.77168 30.4558C10.3461 27.7446 12.6091 25.4931 15.3336 23.9273L51.2136 3.30161C53.9408 1.73427 57.0344 0.909126 60.1835 0.909126C63.3327 0.909126 66.4263 1.73427 69.1535 3.30161L105.033 23.9273C107.758 25.4931 110.021 27.7446 111.595 30.4558C113.17 33.167 114 36.2427 114.003 39.3743V80.6258C114 83.7573 113.17 86.833 111.595 89.5443C110.021 92.2555 107.758 94.5069 105.033 96.0727L69.1535 116.698C66.4263 118.266 63.3327 119.091 60.1835 119.091C57.0344 119.091 53.9408 118.266 51.2136 116.698Z" fill="url(#paint0_linear_450_1202)"/>
<defs>
<linearGradient id="paint0_linear_450_1202" x1="112.816" y1="89.5546" x2="10.167" y2="30.0372" gradientUnits="userSpaceOnUse">
<stop stop-color="#02EEB6"/>
<stop offset="0.4" stop-color="#02DBE7"/>
<stop offset="1" stop-color="#0AC4FF"/>
</linearGradient>
</defs>
</svg>
