<svg width="1757" height="834" viewBox="0 0 1757 834" fill="none" xmlns="http://www.w3.org/2000/svg">
<g clip-path="url(#clip0_22_85)">
<g filter="url(#filter0_f_22_85)">
<path d="M382.5 565C483.292 565 565 483.292 565 382.5C565 281.708 483.292 200 382.5 200C281.708 200 200 281.708 200 382.5C200 483.292 281.708 565 382.5 565Z" fill="url(#paint0_linear_22_85)" fill-opacity="0.5"/>
</g>
<g filter="url(#filter1_f_22_85)">
<path d="M1369.5 584C1445.44 584 1507 522.439 1507 446.5C1507 370.561 1445.44 309 1369.5 309C1293.56 309 1232 370.561 1232 446.5C1232 522.439 1293.56 584 1369.5 584Z" fill="url(#paint1_linear_22_85)" fill-opacity="0.5"/>
</g>
<g filter="url(#filter2_f_22_85)">
<path d="M727 357C753.51 357 775 335.51 775 309C775 282.49 753.51 261 727 261C700.49 261 679 282.49 679 309C679 335.51 700.49 357 727 357Z" fill="url(#paint2_linear_22_85)" fill-opacity="0.5"/>
</g>
</g>
<defs>
<filter id="filter0_f_22_85" x="0" y="0" width="765" height="765" filterUnits="userSpaceOnUse" color-interpolation-filters="sRGB">
<feFlood flood-opacity="0" result="BackgroundImageFix"/>
<feBlend mode="normal" in="SourceGraphic" in2="BackgroundImageFix" result="shape"/>
<feGaussianBlur stdDeviation="100" result="effect1_foregroundBlur_22_85"/>
</filter>
<filter id="filter1_f_22_85" x="982" y="59" width="775" height="775" filterUnits="userSpaceOnUse" color-interpolation-filters="sRGB">
<feFlood flood-opacity="0" result="BackgroundImageFix"/>
<feBlend mode="normal" in="SourceGraphic" in2="BackgroundImageFix" result="shape"/>
<feGaussianBlur stdDeviation="125" result="effect1_foregroundBlur_22_85"/>
</filter>
<filter id="filter2_f_22_85" x="559" y="141" width="336" height="336" filterUnits="userSpaceOnUse" color-interpolation-filters="sRGB">
<feFlood flood-opacity="0" result="BackgroundImageFix"/>
<feBlend mode="normal" in="SourceGraphic" in2="BackgroundImageFix" result="shape"/>
<feGaussianBlur stdDeviation="60" result="effect1_foregroundBlur_22_85"/>
</filter>
<linearGradient id="paint0_linear_22_85" x1="382.5" y1="200" x2="488.468" y2="537.625" gradientUnits="userSpaceOnUse">
<stop stop-color="#8DFFFF"/>
<stop offset="1" stop-color="#0AC7FD"/>
</linearGradient>
<linearGradient id="paint1_linear_22_85" x1="1281.01" y1="334.385" x2="1369.5" y2="584" gradientUnits="userSpaceOnUse">
<stop stop-color="#02EBBF"/>
<stop offset="1" stop-color="#66A3FF"/>
</linearGradient>
<linearGradient id="paint2_linear_22_85" x1="696.108" y1="269.862" x2="727" y2="357" gradientUnits="userSpaceOnUse">
<stop stop-color="#02E2D8"/>
<stop offset="1" stop-color="#66A3FF"/>
</linearGradient>
<clipPath id="clip0_22_85">
<rect width="1757" height="834" fill="white"/>
</clipPath>
</defs>
</svg>
