<svg width="1141" height="251" viewBox="0 0 1141 251" fill="none" xmlns="http://www.w3.org/2000/svg">
<path d="M336.33 189L294.696 75.9075V71.5722H317.344L350.681 167.548H352.4L385.289 71.5722H407.639V75.9075L366.154 189H336.33ZM488.216 147.366L488.141 147.441C488.141 150.057 488.066 152 487.992 153.271H425.055C425.952 159.923 428.269 165.006 431.931 168.519C435.594 172.032 440.378 173.752 446.208 173.752C454.281 173.752 459.962 170.537 463.325 164.109H485.675C483.058 172.556 478.349 179.133 471.473 183.768C464.596 188.402 456.224 190.719 446.283 190.719C433.352 190.719 423.186 186.832 415.711 179.059C408.236 171.285 404.499 160.746 404.499 147.366C404.499 134.584 408.236 124.194 415.711 116.196C423.186 108.198 433.352 104.237 446.208 104.237C459.065 104.237 469.305 108.198 476.854 116.196C484.404 124.194 488.216 134.584 488.216 147.366ZM446.208 121.429H446.358C435.22 121.429 428.343 126.885 425.727 137.798H466.614C464.147 126.885 457.345 121.429 446.208 121.429ZM542.557 190.719H542.333C529.402 190.719 519.161 186.832 511.687 179.059C504.212 171.285 500.475 160.746 500.475 147.366C500.475 133.986 504.212 123.447 511.687 115.748C519.161 108.049 529.402 104.237 542.482 104.237C553.097 104.237 561.842 106.778 568.644 111.936C575.446 117.093 579.706 124.344 581.351 133.687H560.197C559.226 130.024 557.133 127.184 553.993 125.166C550.854 123.148 547.042 122.101 542.557 122.101C535.83 122.101 530.598 124.344 526.786 128.754C522.973 133.164 521.105 139.368 521.105 147.366C521.105 155.364 522.973 161.568 526.786 166.053C530.598 170.537 535.83 172.78 542.557 172.78C547.042 172.78 550.929 171.733 554.143 169.715C557.357 167.697 559.45 164.782 560.422 160.97H581.426C579.781 170.238 575.521 177.489 568.719 182.796C561.917 188.103 553.171 190.719 542.557 190.719ZM636.589 190.719H636.514C624.181 190.719 614.165 186.758 606.391 178.909C598.618 171.061 594.731 160.521 594.731 147.366C594.731 134.21 598.618 123.746 606.391 115.972C614.165 108.198 624.256 104.311 636.589 104.311C648.922 104.311 659.013 108.198 666.787 115.972C674.561 123.746 678.447 134.21 678.447 147.366C678.447 160.521 674.561 171.061 666.787 178.909C659.013 186.758 648.922 190.719 636.589 190.719ZM636.514 172.78C643.242 172.78 648.474 170.537 652.211 166.053C655.949 161.568 657.817 155.364 657.817 147.366C657.817 139.368 655.949 133.164 652.211 128.754C648.474 124.344 643.242 122.101 636.514 122.101C629.862 122.101 624.63 124.344 620.817 128.754C617.005 133.164 615.062 139.368 615.062 147.366C615.062 155.364 617.005 161.568 620.817 166.053C624.63 170.537 629.862 172.78 636.514 172.78ZM696.312 189L696.462 106.255H713.728L716.793 112.683H718.512C724.118 107.227 731.219 104.536 739.815 104.536C750.354 104.536 757.978 108.273 762.688 115.748H764.332C770.984 108.273 779.431 104.536 789.746 104.536C797.594 104.536 803.948 106.255 808.807 109.768C815.908 114.776 819.495 124.045 819.57 137.649V189.224H799.164V142.806C799.164 134.509 797.52 128.978 794.306 126.212C791.689 124.194 788.251 123.148 783.99 123.148C779.506 123.148 775.918 124.194 773.302 126.362C771.732 127.707 770.536 129.427 769.714 131.445C768.892 133.463 768.443 135.182 768.294 136.602C768.144 138.022 768.069 140.041 768.069 142.657V189.075H747.589V142.657C747.589 135.556 746.467 130.548 744.225 127.707C741.684 124.643 737.647 123.073 732.116 122.998C726.659 122.998 722.623 124.568 720.007 127.782C717.765 130.622 716.643 135.556 716.643 142.582V189H696.312ZM845.881 189V71.5722H868.829V168.519H918.311V189H845.881ZM1001.36 118.887V118.962C1003.6 123.447 1004.72 130.622 1004.72 140.414V189.075H987.452L984.388 182.646H982.743C980.575 184.814 978.408 186.459 976.24 187.58C972.279 189.747 967.644 190.794 962.412 190.794C953.667 190.794 946.566 188.253 941.184 183.244C935.802 178.236 933.111 171.509 933.111 163.063C933.111 151.851 937.97 144.376 947.687 140.564C952.396 138.695 959.048 137.798 967.719 137.798H984.388V133.687C984.388 125.54 979.679 121.429 970.335 121.429C961.739 121.429 957.105 124.643 956.357 131.071H935.727C936.325 123.073 939.539 116.645 945.295 111.711C951.05 106.778 959.497 104.311 970.634 104.311C986.331 104.311 996.571 109.17 1001.36 118.887ZM979.978 167.921L979.903 167.996C982.668 165.156 984.163 160.297 984.388 153.346H968.915C964.729 153.346 961.515 153.794 959.273 154.691C955.61 156.111 953.741 159.101 953.741 163.661C953.741 166.8 954.788 169.267 956.881 171.135C958.974 173.004 961.814 173.901 965.402 173.901C971.307 173.901 976.165 171.883 979.978 167.921ZM1071.02 190.719H1070.94C1062.87 190.719 1055.85 188.028 1049.87 182.572H1048.15L1045.08 189H1027.97V71.5722H1048.45V110.74H1050.76C1056.37 106.479 1063.1 104.311 1070.94 104.311C1081.78 104.311 1090.6 108.198 1097.41 116.047C1104.21 123.895 1107.65 134.36 1107.65 147.515C1107.65 160.671 1104.21 171.135 1097.33 178.984C1090.45 186.832 1081.71 190.719 1071.02 190.719ZM1066.98 172.481C1073.34 172.481 1078.27 170.238 1081.86 165.828C1085.45 161.418 1087.24 155.289 1087.24 147.441C1087.24 139.443 1085.45 133.239 1081.86 128.829C1078.27 124.418 1073.34 122.176 1066.98 122.176C1060.55 122.176 1055.55 124.418 1051.96 128.829C1048.37 133.239 1046.58 139.443 1046.58 147.441C1046.58 155.289 1048.37 161.418 1051.96 165.828C1055.55 170.238 1060.55 172.481 1066.98 172.481Z" fill="#1C1C1C"/>
<path d="M213.105 11.0081V172.174L134.279 251H106.833L28.0068 172.174V11.0081H76.0387V206.483H165.073V11.0081H213.105Z" fill="url(#paint0_linear_370_134)"/>
<defs>
<linearGradient id="paint0_linear_370_134" x1="0.999994" y1="251" x2="242" y2="1.79245e-06" gradientUnits="userSpaceOnUse">
<stop stop-color="#5C5AD6"/>
<stop offset="1" stop-color="white"/>
</linearGradient>
</defs>
</svg>
