<svg width="154" height="48" viewBox="0 0 154 48" fill="none" xmlns="http://www.w3.org/2000/svg">
<path d="M19.6667 2.89074L6.33333 10.5699C5.32087 11.1528 4.47991 11.991 3.89485 13.0005C3.30979 14.0099 3.0012 15.155 3 16.3209V31.6791C3.0012 32.845 3.30979 33.9901 3.89485 34.9995C4.47991 36.009 5.32087 36.8472 6.33333 37.4301L19.6667 45.1093C20.6801 45.6928 21.8298 46 23 46C24.1702 46 25.3199 45.6928 26.3333 45.1093L39.6667 37.4301C40.6791 36.8472 41.5201 36.009 42.1051 34.9995C42.6902 33.9901 42.9988 32.845 43 31.6791V16.3209C42.9988 15.155 42.6902 14.0099 42.1051 13.0005C41.5201 11.991 40.6791 11.1528 39.6667 10.5699L26.3333 2.89074C25.3199 2.30721 24.1702 2 23 2C21.8298 2 20.6801 2.30721 19.6667 2.89074V2.89074Z" fill="url(#paint0_linear_0_1)"/>
<path d="M60.808 29.778L62.942 16.732H65.362L62.876 32H58.058L55.572 16.732H57.992L60.104 29.778H60.808ZM75.4493 26.126V26.808H68.8053C68.8493 28.128 69.0253 29.0447 69.3333 29.558C69.656 30.0567 70.228 30.306 71.0493 30.306C71.7093 30.306 72.1933 30.1667 72.5013 29.888C72.824 29.5947 73.0147 29.14 73.0733 28.524H75.3173C75.156 31.0613 73.7187 32.33 71.0053 32.33C69.436 32.33 68.2773 31.824 67.5293 30.812C66.796 29.8 66.4293 28.2233 66.4293 26.082C66.4293 23.97 66.796 22.4153 67.5293 21.418C68.2627 20.4207 69.4067 19.922 70.9613 19.922C72.5453 19.922 73.6893 20.406 74.3933 21.374C75.0973 22.342 75.4493 23.926 75.4493 26.126ZM71.0053 21.946C70.272 21.946 69.744 22.1587 69.4213 22.584C69.1133 22.9947 68.9227 23.728 68.8493 24.784H73.0513C73.022 23.772 72.846 23.046 72.5233 22.606C72.2153 22.166 71.7093 21.946 71.0053 21.946ZM81.8555 32.33C80.2568 32.33 79.0908 31.8313 78.3575 30.834C77.6241 29.8367 77.2575 28.26 77.2575 26.104C77.2575 23.9773 77.6241 22.4153 78.3575 21.418C79.1055 20.4207 80.2715 19.922 81.8555 19.922C83.2048 19.922 84.2608 20.3033 85.0235 21.066C85.7861 21.8287 86.1968 22.9213 86.2555 24.344H83.9015C83.8428 22.7453 83.1681 21.946 81.8775 21.946C81.0561 21.946 80.4768 22.2613 80.1395 22.892C79.8168 23.508 79.6555 24.586 79.6555 26.126C79.6555 27.6953 79.8095 28.788 80.1175 29.404C80.4401 30.0053 81.0268 30.306 81.8775 30.306C83.1535 30.306 83.8355 29.426 83.9235 27.666H86.2775C86.2041 29.1913 85.7861 30.35 85.0235 31.142C84.2755 31.934 83.2195 32.33 81.8555 32.33ZM92.6637 32.33C91.0357 32.33 89.8477 31.8387 89.0997 30.856C88.3663 29.8587 87.9997 28.2747 87.9997 26.104C87.9997 23.9773 88.3663 22.4153 89.0997 21.418C89.8477 20.4207 91.0357 19.922 92.6637 19.922C94.277 19.922 95.4503 20.4207 96.1837 21.418C96.9317 22.4153 97.3057 23.9773 97.3057 26.104C97.3057 28.26 96.9317 29.8367 96.1837 30.834C95.4503 31.8313 94.277 32.33 92.6637 32.33ZM92.6637 30.306C93.5437 30.306 94.1377 29.998 94.4457 29.382C94.7537 28.7513 94.9077 27.6587 94.9077 26.104C94.9077 24.5347 94.7463 23.4493 94.4237 22.848C94.1157 22.2467 93.529 21.946 92.6637 21.946C91.7983 21.946 91.2043 22.254 90.8817 22.87C90.559 23.486 90.3977 24.564 90.3977 26.104C90.3977 27.6587 90.559 28.7513 90.8817 29.382C91.2043 29.998 91.7983 30.306 92.6637 30.306ZM110.415 19.922C111.412 19.922 112.124 20.2813 112.549 21C112.974 21.7187 113.187 22.8993 113.187 24.542V32H110.789V24.63C110.789 23.6767 110.679 22.9873 110.459 22.562C110.254 22.122 109.909 21.902 109.425 21.902C108.222 21.902 107.606 22.914 107.577 24.938V32H105.179V24.63C105.179 23.6767 105.069 22.9873 104.849 22.562C104.644 22.122 104.306 21.902 103.837 21.902C102.634 21.902 102.018 23.0827 101.989 25.444V32H99.5911V20.252H101.989V22.298C102.605 20.714 103.529 19.922 104.761 19.922C106.242 19.922 107.122 20.7433 107.401 22.386C107.988 20.7433 108.992 19.922 110.415 19.922ZM128.225 32H121.251V16.732H123.693V29.778H128.225V32ZM139.944 32H137.546L136.886 27.996H132.948L132.288 32H129.89L132.376 16.732H137.48L139.944 32ZM134.444 18.976L133.322 25.752H136.512L135.39 18.976H134.444ZM149.546 23.684V24.08C150.69 24.6667 151.262 25.8693 151.262 27.688C151.262 29.1547 150.91 30.24 150.206 30.944C149.516 31.648 148.431 32 146.95 32H142.22V16.732H146.884C149.465 16.732 150.756 18.0007 150.756 20.538C150.756 21.3593 150.668 22.0047 150.492 22.474C150.33 22.9433 150.015 23.3467 149.546 23.684ZM144.662 18.976V22.936H147.06C147.896 22.936 148.314 22.254 148.314 20.89C148.314 19.614 147.756 18.976 146.642 18.976H144.662ZM144.662 25.18V29.778H146.862C148.167 29.778 148.82 29.0227 148.82 27.512C148.82 25.9573 148.24 25.18 147.082 25.18H144.662Z" fill="white"/>
<defs>
<linearGradient id="paint0_linear_0_1" x1="42.1" y1="12.9966" x2="3.91863" y2="35.0932" gradientUnits="userSpaceOnUse">
<stop stop-color="#02EEB6"/>
<stop offset="0.4" stop-color="#02DBE7"/>
<stop offset="1" stop-color="#0AC4FF"/>
</linearGradient>
</defs>
</svg>
