<svg width="120" height="120" viewBox="0 0 120 120" fill="none" xmlns="http://www.w3.org/2000/svg">
<path d="M51.6666 7.22268L18.3333 26.3845C15.8022 27.8391 13.6998 29.9308 12.2371 32.4495C10.7745 34.9685 10.003 37.8259 10 40.7351V79.0588C10.003 81.968 10.7745 84.8254 12.2371 87.3442C13.6998 89.8631 15.8022 91.9546 18.3333 93.4094L51.6666 112.571C54.2003 114.027 57.0745 114.794 60 114.794C62.9255 114.794 65.7997 114.027 68.3334 112.571L101.667 93.4094C104.198 91.9546 106.3 89.8631 107.763 87.3442C109.226 84.8254 109.997 81.968 110 79.0588V40.7351C109.997 37.8259 109.226 34.9685 107.763 32.4495C106.3 29.9308 104.198 27.8391 101.667 26.3845L68.3334 7.22268C65.7997 5.76658 62.9255 5 60 5C57.0745 5 54.2003 5.76658 51.6666 7.22268Z" fill="url(#paint0_linear_0_1)"/>
<defs>
<linearGradient id="paint0_linear_0_1" x1="108.897" y1="32.44" x2="13.5334" y2="87.7331" gradientUnits="userSpaceOnUse">
<stop stop-color="#02EEB6"/>
<stop offset="0.4" stop-color="#02DBE7"/>
<stop offset="1" stop-color="#0AC4FF"/>
</linearGradient>
</defs>
</svg>
